<mxfile host="app.diagrams.net" modified="2022-09-26T15:54:27.791Z" agent="5.0 (Windows NT 10.0; Win64; x64) AppleWebKit/537.36 (KHTML, like Gecko) Chrome/105.0.0.0 Safari/537.36 Edg/105.0.1343.42" etag="JRErHVXxp1G7zB60UV0c" version="20.3.6" type="github">
  <diagram id="6dxwb9G9oGYUKweGJK83" name="Page-1">
    <mxGraphModel dx="726" dy="630" grid="1" gridSize="10" guides="1" tooltips="1" connect="1" arrows="1" fold="1" page="1" pageScale="1" pageWidth="827" pageHeight="1169" math="0" shadow="0">
      <root>
        <mxCell id="0" />
        <mxCell id="1" parent="0" />
        <mxCell id="BEk1UXYCiOY1ju4kAS7_-2" value="&lt;b id=&quot;docs-internal-guid-08eebb16-7fff-8dbf-a005-a692cce2977c&quot; style=&quot;font-weight:normal;&quot;&gt;&lt;span style=&quot;font-size: 11pt; font-family: Arial; color: rgb(0, 0, 0); background-color: transparent; font-weight: 400; font-style: normal; font-variant: normal; text-decoration: none; vertical-align: baseline;&quot;&gt;&lt;span style=&quot;border:none;display:inline-block;overflow:hidden;width:602px;height:385px;&quot;&gt;&lt;img style=&quot;margin-left:0px;margin-top:0px;&quot; height=&quot;385&quot; width=&quot;602&quot; src=&quot;https://lh5.googleusercontent.com/_1WapohYGV5GoFmiIUy6-8Qrks_N-m8UfmeHILauubAf1LjIU1MDJdGBs8OSjaCqiUzxvAzzmHDjWwIzN2hLVIYnQ9MTPsE2eiLnszoHVxPG0WM1J6wvU0yl1nxKzVBWoXsJ8hJXHqNNmjw7lo5Vc_5A1ItyXys1K3JMrbNGbBRfGoO3R9d2D0ybEg&quot;&gt;&lt;/span&gt;&lt;/span&gt;&lt;/b&gt;" style="text;whiteSpace=wrap;html=1;" vertex="1" parent="1">
          <mxGeometry x="30" y="390" width="560" height="410" as="geometry" />
        </mxCell>
      </root>
    </mxGraphModel>
  </diagram>
</mxfile>
